<?xml version="1.0" encoding="utf-8"?>
<!-- Generator: Adobe Illustrator 26.0.1, SVG Export Plug-In . SVG Version: 6.00 Build 0)  -->
<svg version="1.1" id="Layer_1" xmlns="http://www.w3.org/2000/svg" xmlns:xlink="http://www.w3.org/1999/xlink" x="0px" y="0px"
	 viewBox="0 0 595.28 450.64" style="enable-background:new 0 0 595.28 450.64;" xml:space="preserve">
<style type="text/css">
	.st0{fill:#50ACD7;}
</style>
<g>
	<path class="st0" d="M294.61,225.32c0,0-10.71-5.33,0.97-10.74c0,0,5.34-1.92,12.95-0.92c0,0-9.6-2.71-17.14,1.42
		c-1.81,0.99-2.76,2.07-3.12,3.13C287.13,221.58,292.68,225.17,294.61,225.32z"/>
	<path class="st0" d="M307.55,212.14l0.69,1.47l-1.12,1.37c0,0,2.69-1.13,2.72-1.12S307.55,212.14,307.55,212.14z"/>
	<path class="st0" d="M296.25,216.15c-0.03-0.52-0.11-1.02-0.24-1.5c-0.24,0.07-0.36,0.11-0.37,0.12c-0.04,0.02-0.08,0.04-0.11,0.05
		c0.11,0.42,0.18,0.86,0.21,1.3h-2.57c-0.26,0.17-0.49,0.34-0.71,0.51h0.21c-0.01,1.11-0.22,2.18-0.59,3.16
		c-0.54-0.19-1.1-0.33-1.68-0.42c-0.04,0.17-0.06,0.33-0.08,0.5c0.54,0.08,1.06,0.22,1.56,0.39c-0.26,0.59-0.59,1.15-0.96,1.67
		c0.09,0.15,0.19,0.29,0.3,0.44c0.45-0.59,0.83-1.24,1.13-1.93c0.53,0.22,1.04,0.49,1.52,0.8c-0.64,0.67-1.41,1.22-2.27,1.59
		c0.12,0.13,0.25,0.26,0.38,0.38c0.89-0.41,1.69-1,2.35-1.71c0.11-0.12,0.21-0.24,0.31-0.36c1-1.24,1.6-2.81,1.62-4.52
		c0-0.03,0-0.05,0-0.08C296.26,216.41,296.26,216.28,296.25,216.15z M294.22,220.86c-0.52-0.34-1.08-0.64-1.67-0.88
		c0.4-1.04,0.62-2.17,0.63-3.34h2.58C295.73,218.23,295.16,219.7,294.22,220.86z M294.56,211.85c-0.1-0.12-0.21-0.24-0.32-0.35
		c-1.23-1.3-2.94-2.15-4.83-2.28c-0.08,0-0.17-0.01-0.25-0.01c0,0-0.01-0.01-0.01-0.01v0.01c-0.08,0-0.16,0-0.24,0s-0.16,0-0.24,0
		c-0.03,0-0.06,0-0.09,0c-0.08,0-0.16,0.01-0.24,0.02c-1.89,0.15-3.58,1.01-4.8,2.31c-0.11,0.11-0.21,0.23-0.31,0.35
		c-0.96,1.17-1.57,2.65-1.66,4.27c-0.01,0.13-0.01,0.26-0.01,0.4c0,0.03,0,0.05,0,0.08c0.02,1.69,0.61,3.25,1.59,4.48
		c0.1,0.12,0.2,0.24,0.31,0.36c1.23,1.36,2.95,2.25,4.88,2.4c0.08,0,0.16,0.01,0.24,0.02c0.03,0,0.06,0,0.09,0c0.08,0,0.16,0,0.24,0
		s0.16,0,0.24,0v0.01c0,0,0.01,0,0.01-0.01c0.08,0,0.17-0.01,0.25-0.01c0.48-0.03,0.94-0.11,1.38-0.23
		c-0.26-0.21-0.52-0.42-0.77-0.65c-0.12,0.12-0.24,0.24-0.36,0.35c-0.17,0.02-0.33,0.03-0.5,0.04v-1.3c-0.16-0.2-0.31-0.4-0.45-0.61
		c-0.02-0.03-0.04-0.06-0.06-0.09v1.99c-0.2-0.01-0.4-0.03-0.6-0.05c-0.93-0.85-1.69-1.9-2.21-3.07c0.68-0.24,1.39-0.39,2.13-0.46
		c-0.03-0.17-0.05-0.34-0.06-0.5c-0.78,0.08-1.54,0.24-2.26,0.5c-0.37-0.98-0.58-2.05-0.59-3.16h3.59v0.43
		c0.24-0.32,0.52-0.64,0.87-0.94h-0.36v-2.46c1-0.03,1.95-0.21,2.85-0.52c0.16,0.39,0.29,0.79,0.39,1.21
		c0.16-0.07,0.31-0.14,0.47-0.2c-0.1-0.4-0.23-0.8-0.38-1.18c0.57-0.23,1.12-0.52,1.63-0.85c0.34,0.4,0.63,0.83,0.87,1.29
		c0.16-0.05,0.33-0.09,0.5-0.13C295.24,212.76,294.92,212.28,294.56,211.85z M287.17,209.92c-0.71,0.76-1.29,1.63-1.73,2.58
		c-0.5-0.2-0.98-0.45-1.43-0.73C284.87,210.9,285.95,210.24,287.17,209.92z M287.17,223.16c-1.27-0.33-2.39-1.02-3.26-1.95
		c0.46-0.3,0.95-0.56,1.47-0.77C285.82,221.45,286.43,222.37,287.17,223.16z M285.19,219.98c-0.57,0.23-1.11,0.52-1.61,0.85
		c-0.93-1.15-1.49-2.61-1.51-4.19h2.49C284.57,217.81,284.79,218.93,285.19,219.98z M284.57,216.12h-2.49
		c0.09-1.51,0.67-2.88,1.59-3.97c0.5,0.32,1.03,0.59,1.58,0.81C284.85,213.95,284.62,215.01,284.57,216.12z M288.66,216.12h-3.58
		c0.05-1.05,0.27-2.05,0.64-2.98c0.93,0.32,1.91,0.5,2.94,0.52V216.12z M288.66,213.16c-0.95-0.02-1.88-0.19-2.74-0.48
		c0.52-1.11,1.25-2.1,2.14-2.92c0.2-0.03,0.4-0.04,0.6-0.05V213.16z M289.17,213.16v-3.45c0.17,0,0.33,0.02,0.5,0.03
		c0.9,0.82,1.63,1.82,2.15,2.94C290.98,212.96,290.09,213.13,289.17,213.16z M292.3,212.5c-0.44-0.96-1.04-1.84-1.75-2.6
		c1.25,0.31,2.36,0.96,3.24,1.84C293.31,212.04,292.82,212.29,292.3,212.5z"/>
	<g>
		<g>
			<path class="st0" d="M299.99,216.07l2.14,6.85h-1.73l-0.42-1.41h-2.22l-0.43,1.41h-1.41l2.2-6.85H299.99z M298.16,220.24h1.45
				l-0.72-2.4L298.16,220.24z"/>
			<path class="st0" d="M307.05,222.92h-1.5v-2.85c0-0.34-0.01-0.58-0.04-0.71c-0.03-0.13-0.09-0.24-0.2-0.32
				c-0.1-0.09-0.23-0.13-0.39-0.13c-0.53,0-0.79,0.39-0.79,1.16v2.85h-1.5v-5.07h1.39v0.86c0.23-0.41,0.46-0.67,0.68-0.79
				c0.22-0.12,0.47-0.18,0.73-0.18c0.48,0,0.87,0.13,1.16,0.39c0.29,0.26,0.44,0.77,0.44,1.53V222.92z"/>
			<path class="st0" d="M313.72,218.62l-1.68,0.11c-0.02-0.97-0.4-1.45-1.13-1.45c-0.84,0-1.26,0.74-1.26,2.23
				c0,0.86,0.11,1.44,0.34,1.75c0.23,0.31,0.55,0.46,0.96,0.46c0.66,0,1.07-0.43,1.22-1.3l1.56,0.1c-0.1,0.82-0.41,1.44-0.92,1.87
				c-0.51,0.43-1.14,0.64-1.88,0.64c-0.91,0-1.64-0.31-2.21-0.94c-0.57-0.63-0.85-1.49-0.85-2.6c0-1.03,0.27-1.88,0.82-2.54
				c0.55-0.66,1.3-0.99,2.25-0.99C312.58,215.96,313.51,216.85,313.72,218.62z"/>
		</g>
	</g>
</g>
</svg>
