<?xml version="1.0" encoding="utf-8"?>
<!-- Generator: Adobe Illustrator 26.0.1, SVG Export Plug-In . SVG Version: 6.00 Build 0)  -->
<svg version="1.1" id="Layer_1" xmlns="http://www.w3.org/2000/svg" xmlns:xlink="http://www.w3.org/1999/xlink" x="0px" y="0px"
	 viewBox="0 0 595.28 450.64" style="enable-background:new 0 0 595.28 450.64;" xml:space="preserve">
<style type="text/css">
	.st0{fill:#50ACD7;}
</style>
<g>
	<path class="st0" d="M269.83,299.32c0,0-98.28-48.88,8.93-98.55c0,0,48.95-17.59,118.86-8.45c0,0-88.05-24.89-157.28,13.02
		c-16.63,9.11-25.34,18.98-28.65,28.76C201.22,265,252.19,297.96,269.83,299.32z"/>
	<path class="st0" d="M388.59,178.35l6.3,13.45l-10.25,12.59c0,0,24.7-10.36,24.95-10.28S388.59,178.35,388.59,178.35z"/>
	<path class="st0" d="M284.92,215.17c-0.25-4.74-0.99-9.35-2.18-13.77c-2.16,0.63-3.31,1.05-3.37,1.07
		c-0.36,0.17-0.71,0.34-1.05,0.48c1.03,3.86,1.68,7.86,1.93,11.97h-23.63c-2.35,1.53-4.51,3.08-6.54,4.65h1.97
		c-0.08,10.21-2.01,20-5.43,29.03c-4.95-1.72-10.08-3.04-15.39-3.86c-0.38,1.53-0.59,3.06-0.69,4.59c4.93,0.78,9.68,1.99,14.3,3.58
		c-2.41,5.45-5.39,10.59-8.83,15.37c0.86,1.36,1.78,2.7,2.79,4c4.11-5.45,7.61-11.4,10.4-17.74c4.91,2.01,9.58,4.49,13.96,7.34
		c-5.85,6.18-12.91,11.17-20.84,14.59c1.13,1.22,2.29,2.39,3.46,3.52c8.2-3.75,15.51-9.14,21.53-15.7c0.96-1.07,1.91-2.18,2.83-3.31
		c9.16-11.4,14.7-25.81,14.86-41.49c0-0.23,0.02-0.48,0.02-0.71C285.03,217.59,284.99,216.37,284.92,215.17z M266.27,258.38
		c-4.8-3.17-9.92-5.89-15.3-8.11c3.63-9.56,5.66-19.89,5.74-30.69h23.65C280.17,234.27,274.92,247.75,266.27,258.38z M269.41,175.7
		c-0.92-1.11-1.89-2.2-2.89-3.25c-11.32-11.95-26.94-19.77-44.36-20.94c-0.75-0.04-1.53-0.08-2.31-0.1
		c-0.04-0.04-0.08-0.06-0.1-0.08v0.06c-0.73-0.02-1.45-0.04-2.18-0.04c-0.73,0-1.45,0.02-2.18,0.04c-0.27,0.02-0.57,0.02-0.86,0.02
		c-0.73,0.04-1.47,0.1-2.2,0.15c-17.32,1.34-32.83,9.25-44.02,21.24c-0.99,1.05-1.95,2.14-2.87,3.25
		c-8.85,10.78-14.42,24.32-15.22,39.14c-0.06,1.19-0.1,2.41-0.1,3.63c0,0.23,0.02,0.48,0.02,0.71c0.17,15.53,5.6,29.79,14.59,41.13
		c0.9,1.13,1.82,2.24,2.81,3.33c11.26,12.45,27.06,20.67,44.8,22.05c0.73,0.04,1.47,0.1,2.2,0.15c0.29,0,0.59,0,0.86,0.02
		c0.73,0.02,1.45,0.04,2.18,0.04c0.73,0,1.45-0.02,2.18-0.04v0.06c0.02-0.02,0.06-0.04,0.1-0.06c0.78-0.04,1.55-0.06,2.31-0.13
		c4.36-0.29,8.59-1.01,12.66-2.1c-2.41-1.89-4.78-3.88-7.02-5.95c-1.07,1.09-2.18,2.16-3.31,3.19c-1.53,0.17-3.06,0.27-4.59,0.34
		v-11.89c-1.49-1.8-2.87-3.67-4.13-5.56c-0.19-0.27-0.36-0.55-0.52-0.82v18.26c-1.84-0.08-3.67-0.23-5.47-0.46
		c-8.55-7.82-15.49-17.42-20.25-28.15c6.23-2.16,12.75-3.61,19.54-4.26c-0.31-1.55-0.5-3.08-0.59-4.61
		c-7.19,0.69-14.15,2.24-20.73,4.55c-3.42-9.04-5.35-18.83-5.43-29.03h32.93v3.96c2.16-2.98,4.8-5.87,7.95-8.62h-3.29v-22.56
		c9.14-0.27,17.92-1.93,26.18-4.76c1.43,3.58,2.62,7.27,3.54,11.07c1.43-0.65,2.87-1.28,4.34-1.87c-0.94-3.71-2.14-7.32-3.52-10.84
		c5.26-2.12,10.27-4.74,14.99-7.78c3.08,3.63,5.76,7.61,7.97,11.87c1.51-0.44,3.04-0.86,4.59-1.24
		C275.64,184.11,272.74,179.7,269.41,175.7z M201.61,158.05c-6.48,6.94-11.84,14.93-15.87,23.65c-4.59-1.84-8.99-4.09-13.14-6.69
		C180.44,166.96,190.42,160.98,201.61,158.05z M201.61,279.53c-11.63-3.06-21.97-9.39-29.94-17.92c4.26-2.73,8.74-5.09,13.48-7.04
		C189.23,263.81,194.8,272.24,201.61,279.53z M183.4,250.27c-5.2,2.14-10.15,4.76-14.8,7.78c-8.49-10.57-13.65-23.94-13.81-38.47
		h22.87C177.74,230.37,179.77,240.71,183.4,250.27z M177.74,214.92h-22.85c0.86-13.81,6.18-26.44,14.55-36.41
		c4.57,2.91,9.41,5.41,14.49,7.46C180.34,195.01,178.18,204.73,177.74,214.92z M215.24,214.92h-32.85
		c0.44-9.62,2.49-18.8,5.89-27.32c8.49,2.91,17.55,4.57,26.96,4.78V214.92z M215.24,187.73c-8.76-0.21-17.21-1.74-25.11-4.42
		c4.74-10.21,11.45-19.31,19.64-26.81c1.8-0.23,3.63-0.38,5.47-0.44V187.73z M219.89,187.71v-31.65c1.53,0.04,3.06,0.15,4.59,0.31
		c8.24,7.55,14.99,16.69,19.75,26.94C236.56,185.91,228.39,187.44,219.89,187.71z M248.61,181.7c-4.07-8.83-9.52-16.9-16.1-23.9
		c11.47,2.81,21.7,8.76,29.73,16.92C257.94,177.44,253.39,179.77,248.61,181.7z"/>
	<g>
		<g>
			<path class="st0" d="M319.24,214.4l19.68,62.87H323.1l-3.87-12.94h-20.33l-3.94,12.94h-12.91l20.15-62.87H319.24z M302.43,252.72
				h13.32l-6.6-22.06L302.43,252.72z"/>
			<path class="st0" d="M383.99,277.27h-13.73v-26.12c0-3.16-0.12-5.33-0.37-6.49s-0.84-2.16-1.8-2.97
				c-0.95-0.81-2.15-1.22-3.59-1.22c-4.82,0-7.23,3.56-7.23,10.69v26.12h-13.73v-46.52h12.76v7.88c2.12-3.74,4.21-6.16,6.26-7.23
				c2.06-1.07,4.28-1.61,6.68-1.61c4.42,0,7.98,1.19,10.69,3.57c2.7,2.38,4.05,7.06,4.05,14.03V277.27z"/>
			<path class="st0" d="M445.17,237.8l-15.43,0.97c-0.22-8.87-3.68-13.31-10.39-13.31c-7.69,0-11.54,6.83-11.54,20.5
				c0,7.89,1.05,13.24,3.14,16.05c2.09,2.81,5.02,4.22,8.77,4.22c6.09,0,9.82-3.96,11.17-11.88l14.28,0.87
				c-0.92,7.53-3.72,13.24-8.41,17.16c-4.68,3.91-10.42,5.87-17.2,5.87c-8.32,0-15.09-2.87-20.29-8.61
				c-5.21-5.74-7.81-13.68-7.81-23.82c0-9.49,2.52-17.26,7.55-23.31c5.04-6.05,11.91-9.08,20.64-9.08
				C434.76,213.43,443.26,221.55,445.17,237.8z"/>
		</g>
	</g>
</g>
</svg>
